<svg xmlns="http://www.w3.org/2000/svg" height="24" viewBox="0 -960 960 960" width="24"><path d="M296-93.847 253.847-136 516-398.768l140 140 207-207L905.768-423 656-173.847l-140-140-220 220Zm-123.691-46.154q-30.308 0-51.308-21t-21-51.308v-535.382q0-30.308 21-51.308t51.308-21h535.382q30.308 0 51.308 21t21 51.308v168H160v367.382q0 4.616 3.846 8.463 3.847 3.846 8.463 3.846v59.999ZM160-639.69h560v-108.001q0-4.616-3.846-8.463-3.847-3.846-8.463-3.846H172.309q-4.616 0-8.463 3.846-3.846 3.847-3.846 8.463v108.001Zm0 0V-760v120.31Z"/></svg>